<svg id="Layer_1" data-name="Layer 1" xmlns="http://www.w3.org/2000/svg" xmlns:xlink="http://www.w3.org/1999/xlink" viewBox="0 0 2560 900"><defs><style>.cls-1{opacity:0.2;fill:url(#linear-gradient);}.cls-2{opacity:0.27;fill:url(#linear-gradient-2);}.cls-3{opacity:0.33;fill:url(#linear-gradient-3);}.cls-4{opacity:0.4;fill:url(#linear-gradient-4);}.cls-5{opacity:0.45;fill:url(#linear-gradient-5);}.cls-6{opacity:0.5;fill:url(#linear-gradient-6);}.cls-7{opacity:0.55;fill:url(#linear-gradient-7);}.cls-8{opacity:0.6;fill:url(#linear-gradient-8);}.cls-9{opacity:0.65;fill:url(#linear-gradient-9);}</style><linearGradient id="linear-gradient" x1="160.8" y1="259.44" x2="2655.06" y2="259.44" gradientTransform="matrix(1.01, -0.05, -0.13, 1.05, 25.44, 6.06)" gradientUnits="userSpaceOnUse"><stop offset="0" stop-color="#ff7c85"/><stop offset="1" stop-color="#ff2b5c"/></linearGradient><linearGradient id="linear-gradient-2" x1="262.14" y1="218.81" x2="2483.96" y2="218.81" gradientTransform="matrix(1.01, -0.05, -0.13, 1.05, 25.44, 6.06)" gradientUnits="userSpaceOnUse"><stop offset="0" stop-color="#f66164"/><stop offset="1" stop-color="#ff255c"/></linearGradient><linearGradient id="linear-gradient-3" x1="341.01" y1="178.98" x2="2316.63" y2="178.98" gradientTransform="matrix(1.01, -0.05, -0.13, 1.05, 25.44, 6.06)" gradientUnits="userSpaceOnUse"><stop offset="0" stop-color="#ed4743"/><stop offset="1" stop-color="#ff1f5b"/></linearGradient><linearGradient id="linear-gradient-4" x1="406.75" y1="139.65" x2="2154.46" y2="139.65" gradientTransform="matrix(1.01, -0.05, -0.13, 1.05, 25.44, 6.06)" gradientUnits="userSpaceOnUse"><stop offset="0" stop-color="#e32c21"/><stop offset="1" stop-color="#ff195b"/></linearGradient><linearGradient id="linear-gradient-5" x1="464.13" y1="99.68" x2="1999.65" y2="99.68" gradientTransform="matrix(1.01, -0.05, -0.13, 1.05, 25.44, 6.06)" gradientUnits="userSpaceOnUse"><stop offset="0" stop-color="#da1100"/><stop offset="1" stop-color="#ff135a"/></linearGradient><linearGradient id="linear-gradient-6" x1="531.89" y1="60.37" x2="1850.37" y2="60.37" gradientTransform="matrix(1.01, -0.05, -0.13, 1.05, 25.44, 6.06)" gradientUnits="userSpaceOnUse"><stop offset="0" stop-color="#b30d16"/><stop offset="1" stop-color="#d90e5a"/></linearGradient><linearGradient id="linear-gradient-7" x1="599.13" y1="21.31" x2="1701.97" y2="21.31" gradientTransform="matrix(1.01, -0.05, -0.13, 1.05, 25.44, 6.06)" gradientUnits="userSpaceOnUse"><stop offset="0" stop-color="#8d092b"/><stop offset="1" stop-color="#b20a5a"/></linearGradient><linearGradient id="linear-gradient-8" x1="665.62" y1="-16.71" x2="1556.08" y2="-16.71" gradientTransform="matrix(1.01, -0.05, -0.13, 1.05, 25.44, 6.06)" gradientUnits="userSpaceOnUse"><stop offset="0" stop-color="#670441"/><stop offset="1" stop-color="#8c055a"/></linearGradient><linearGradient id="linear-gradient-9" x1="-7116.36" y1="-13023.12" x2="-6524.05" y2="-13023.12" gradientTransform="matrix(0.61, 0.73, -0.82, 0.76, -5444.54, 14777.89)" gradientUnits="userSpaceOnUse"><stop offset="0" stop-color="#400056"/><stop offset="1" stop-color="#65005a"/></linearGradient></defs><title>baltimore-bg-overlay-large</title><path class="cls-1" d="M1138.51-475.72C447.91-406.78,241.69,68.41,143.8,443.88,29.57,882,218,1002.8,516.08,705.12,1195.23,27,1369.23,1415.77,2462.91,676.3,3135.15,221.78,1878.06-549.55,1138.51-475.72ZM2283.94,616.82C1330.32,1212.28,1213.71,85.24,648.37,556c-248,206.52-442.55,155.6-403.78-185.56,33.23-292.37,229-737.86,863.53-819C1834.47-541.46,2954,198.43,2283.94,616.82Z"/><path class="cls-2" d="M1108.12-448.56c-634.54,81.15-830.3,526.64-863.53,819C205.82,711.61,400.36,762.53,648.37,556c565.34-470.77,681.95,656.27,1635.57,60.81C2954,198.43,1834.47-541.46,1108.12-448.56ZM2105,557.35C1298.54,1014.19,1224.42,147.48,780.66,406.9,578.6,525,382.07,541.2,345.38,297,314,87.76,499.38-329.49,1077.73-421.4,1791.06-534.77,2776.37,177,2105,557.35Z"/><path class="cls-3" d="M1077.73-421.4C499.38-329.49,314,87.76,345.38,297,382.07,541.2,578.6,525,780.66,406.9,1224.42,147.48,1298.54,1014.19,2105,557.35,2776.37,177,1791.06-534.77,1077.73-421.4ZM1926,497.87c-652.51,325-719.37-293.36-1013-240.08-170.23,30.88-354.63,113-466.79-34.21C350.08,97.43,525.1-293.08,1047.33-394.24,1747.55-529.88,2603.56,160.37,1926,497.87Z"/><path class="cls-4" d="M1047.33-394.24C525.1-293.08,350.08,97.43,446.16,223.58,558.32,370.79,742.72,288.67,913,257.79,1206.63,204.51,1273.49,822.91,1926,497.87,2603.56,160.37,1747.55-529.88,1047.33-394.24ZM1747,438.4c-494,202-548.46-224.07-701.79-329.72C917.66,20.77,734.57,200.38,547,150.14c-160.74-43,3.47-408.32,470-517.22C1703.47-527.34,2437.7,155.92,1747,438.4Z"/><path class="cls-5" d="M1016.94-367.08C550.42-258.18,386.21,107.11,547,150.14c187.62,50.24,370.71-129.37,498.3-41.46C1198.58,214.33,1253.05,640.44,1747,438.4,2437.7,155.92,1703.47-527.34,1016.94-367.08Zm612.39,718c-420.3,153.37-460.45-213.28-597.4-291C918.88-4.89,748.48,139.16,605.17,89c-126.09-44.16,17.62-336.8,405.1-430.24C1660.45-498.06,2222.81,136.27,1629.33,350.91Z"/><path class="cls-6" d="M1010.27-341.27C622.79-247.83,479.08,44.81,605.17,89c143.31,50.19,313.71-93.86,426.76-29.1,137,77.76,177.1,444.41,597.4,291C2222.81,136.27,1660.45-498.06,1010.27-341.27Zm501.36,604.69c-347,103.71-372.79-202.11-493-252.36C919.84-30.23,762.4,77.29,663.38,27.79,571.81-18,695-238.09,1003.6-315.46,1617.37-469.36,2007.46,115.23,1511.63,263.42Z"/><path class="cls-7" d="M1003.6-315.46C695-238.09,571.81-18,663.38,27.79c99,49.5,256.46-58,355.24-16.73,120.22,50.25,146.05,356.07,493,252.36C2007.46,115.23,1617.37-469.36,1003.6-315.46Zm390.33,491.4c-273.11,55-284.7-191.31-388.62-213.69C921.15-55.88,777,14.09,721.6-33.38,665-81.89,767.14-229.06,996.93-289.65,1574-441.8,1792.83,95.56,1393.93,175.94Z"/><path class="cls-8" d="M996.93-289.65C767.14-229.06,665-81.89,721.6-33.38c55.39,47.47,199.55-22.5,283.71-4.37C1109.23-15.37,1120.82,231,1393.93,175.94,1792.83,95.56,1574-441.8,996.93-289.65Zm279.3,378.1C1077,95.78,1079.75-92.49,992-86.56c-69.44,4.68-197.22,35.92-212.19-8-18-52.92,59.17-126.31,210.45-169.27C1529.84-417.09,1578.16,77.34,1276.23,88.45Z"/><path class="cls-9" d="M990.26-263.83C839-220.87,761.78-147.48,779.81-94.56c15,43.92,142.75,12.68,212.19,8,87.75-5.93,85,182.34,284.23,175C1578.16,77.34,1529.84-417.09,990.26-263.83Z"/></svg>