<svg xmlns="http://www.w3.org/2000/svg" xmlns:xlink="http://www.w3.org/1999/xlink" viewBox="0 0 2560 1100"><defs><style>.cls-1{isolation:isolate;}.cls-2{mix-blend-mode:multiply;}.cls-3,.cls-8{opacity:0.5;}.cls-3{fill:url(#linear-gradient);}.cls-4{fill:none;}.cls-5{opacity:0.2;fill:url(#linear-gradient-2);}.cls-6{opacity:0.3;fill:url(#linear-gradient-3);}.cls-7{opacity:0.4;fill:url(#linear-gradient-4);}.cls-8{fill:url(#linear-gradient-5);}.cls-9{opacity:0.55;fill:url(#linear-gradient-6);}.cls-10{opacity:0.6;fill:url(#linear-gradient-7);}.cls-11{opacity:0.65;fill:url(#linear-gradient-8);}</style><linearGradient id="linear-gradient" x1="-9073.75" y1="-14118.39" x2="-7830.36" y2="-14118.39" gradientTransform="translate(-4920.72 15516.52) rotate(46.29)" gradientUnits="userSpaceOnUse"><stop offset="0" stop-color="#f3d9cf"/><stop offset="1" stop-color="#ffcccf"/></linearGradient><linearGradient id="linear-gradient-2" x1="-6807.3" y1="3817.37" x2="-4693.17" y2="3817.37" gradientTransform="translate(3085.82 -5819.38) rotate(-45.56)" gradientUnits="userSpaceOnUse"><stop offset="0" stop-color="#ffc347"/><stop offset="1" stop-color="#dece24"/></linearGradient><linearGradient id="linear-gradient-3" x1="-6652.92" y1="3849.61" x2="-4769.34" y2="3849.61" gradientTransform="translate(3085.82 -5819.38) rotate(-45.56)" gradientUnits="userSpaceOnUse"><stop offset="0" stop-color="#ffbd2f"/><stop offset="1" stop-color="#d8c718"/></linearGradient><linearGradient id="linear-gradient-4" x1="-6506.86" y1="3891.42" x2="-4840.9" y2="3891.42" gradientTransform="translate(3085.82 -5819.38) rotate(-45.56)" gradientUnits="userSpaceOnUse"><stop offset="0" stop-color="#ffb718"/><stop offset="1" stop-color="#d2c00c"/></linearGradient><linearGradient id="linear-gradient-5" x1="-6367.14" y1="3947.53" x2="-4903.3" y2="3947.53" gradientTransform="translate(3085.82 -5819.38) rotate(-45.56)" gradientUnits="userSpaceOnUse"><stop offset="0" stop-color="#ffb100"/><stop offset="1" stop-color="#ccb900"/></linearGradient><linearGradient id="linear-gradient-6" x1="-6088.91" y1="3942.25" x2="-4947.5" y2="3942.25" gradientTransform="translate(3085.82 -5819.38) rotate(-45.56)" gradientUnits="userSpaceOnUse"><stop offset="0" stop-color="#ed8c00"/><stop offset="1" stop-color="#c99e00"/></linearGradient><linearGradient id="linear-gradient-7" x1="-5813.14" y1="3938.05" x2="-4991.63" y2="3938.05" gradientTransform="translate(3085.82 -5819.38) rotate(-45.56)" gradientUnits="userSpaceOnUse"><stop offset="0" stop-color="#dc6600"/><stop offset="1" stop-color="#c78200"/></linearGradient><linearGradient id="linear-gradient-8" x1="-5540.94" y1="3908.99" x2="-5035.7" y2="3908.99" gradientTransform="translate(3085.82 -5819.38) rotate(-45.56)" gradientUnits="userSpaceOnUse"><stop offset="0" stop-color="#ca4100"/><stop offset="1" stop-color="#c46700"/></linearGradient></defs><title>news-bg-jumbotron</title><g class="cls-1"><g id="Layer_1" data-name="Layer 1"><g class="cls-2"><path class="cls-3" d="M-676.06-943.28C-292.53-971.29,417.81-402,94.43-110c-526.12,475-708-485.73-1020.4-40.13-137.16,195.61-244,106.71-212.51-191.17C-1111.53-596.58-1034.2-917.12-676.06-943.28Z"/></g><rect class="cls-4" width="2560" height="1100"/><path class="cls-5" d="M2081.88-145.51c-280.45-117.53-363.44,358.3-381,433.91s-82.45,322.92-539.14,113.35-810.1,306.57-734.38,576c90.85,323.26,346.6,416.56,534.09,616.55s578.76,805.7,1179.18,498.07C3853.25,1214.9,2362.34-28,2081.88-145.51Zm70.6,2060.91c-557.14,352.16-837.75-225.55-999.08-397.64s-419.33-211-497.5-489.15C590.74,796.76,911,393.68,1307.44,505.06c390.37,109.68,450.4-91.53,466.45-156.36,24.77-100,139.91-468.46,374.32-358C2384,102.16,3465.69,1085.34,2152.48,1915.4Z"/><path class="cls-6" d="M2148.21-9.26c-234.41-110.5-349.55,257.91-374.32,358-16.05,64.83-76.08,266-466.45,156.36C911,393.68,590.74,796.76,655.9,1028.61c78.17,278.16,336.17,317.07,497.5,489.15s441.94,749.8,999.08,397.64C3465.69,1085.34,2384,102.16,2148.21-9.26Zm16.15,1747.68c-509.43,408.22-683.8-153-819-297.21S950,1312.51,884.48,1079.46C829.89,885.19,1116,596.6,1453.17,608.36c323,11.26,379.68-145.21,393.77-199.36,32.36-124.4,179.24-385.49,367.59-282C2405.58,232.3,3095.42,992.32,2164.36,1738.42Z"/><path class="cls-7" d="M2214.53,127C2026.18,23.51,1879.3,284.6,1846.94,409c-14.09,54.15-70.74,210.62-393.77,199.36C1116,596.6,829.89,885.19,884.48,1079.46c65.49,233,325.73,217.56,460.9,361.75s309.55,705.43,819,297.21C3095.42,992.32,2405.58,232.3,2214.53,127Zm-38.28,1434.44c-442.58,484.25-529.86-80.5-638.88-196.78s-371.49-46.39-424.31-234.35c-44-156.67,208.26-327.5,485.85-418.63C1855,627.6,1908.07,512.83,1920,469.3c40.68-148.55,218.56-302.52,360.86-206.06C2427.21,362.45,2753.91,929.37,2176.25,1561.43Z"/><path class="cls-8" d="M2280.85,263.24c-142.3-96.46-320.18,57.51-360.86,206.06-11.92,43.53-65,158.3-321.08,242.37-277.59,91.13-529.88,262-485.85,418.63,52.82,188,315.3,118.07,424.31,234.35s196.3,681,638.88,196.78C2753.91,929.37,2427.21,362.45,2280.85,263.24Zm-91.42,1095.65C1876.21,1680.1,1835.5,1265,1741.57,1164.8s-321.48-12.42-367.71-153.61C1335,893.07,1535.2,769.92,1734.68,694.61c192.53-72.68,232.84-165.66,241.2-207.14,25.27-125.33,171.07-256.85,294.18-172.79C2449.06,437.78,2593.52,944.48,2189.43,1358.89Z"/><path class="cls-9" d="M2270.06,314.68c-123.11-84.06-268.91,47.46-294.18,172.79-8.36,41.48-48.67,134.46-241.2,207.14C1535.2,769.92,1335,893.07,1373.86,1011.19c46.23,141.19,273.78,53.42,367.71,153.61s134.64,515.3,447.86,194.09C2593.52,944.48,2449.06,437.78,2270.06,314.68Zm-67.46,841.67c-184.69,158.46-178-107.29-256.83-191.39s-271.46,21.55-311.11-72.88C1601,812.52,1748.93,736,1870.45,677.56c129-62,156.9-132.36,161.32-171.91,11.35-101.66,123.57-211.2,227.5-139.53C2470.91,513.12,2432,959.53,2202.6,1156.35Z"/><path class="cls-10" d="M2259.27,366.12c-103.93-71.67-216.15,37.87-227.5,139.53-4.42,39.55-32.33,109.86-161.32,171.91C1748.93,736,1601,812.52,1634.66,892.08c39.65,94.43,232.26-11.22,311.11,72.88s72.14,349.85,256.83,191.39C2432,959.53,2470.91,513.12,2259.27,366.12Zm-43.49,587.69c-63.35-13.59-2.06-120.69-65.82-188.7s-221.44,55.53-254.5,7.86c-28.44-41,65.66-73.75,110.77-112.46,63.68-54.65,81.77-99,81.43-136.69-.72-77.91,76.08-165.53,160.82-106.25C2492.76,588.45,2261.24,963.55,2215.78,953.81Z"/><path class="cls-11" d="M2248.48,417.57c-84.74-59.28-161.54,28.34-160.82,106.25.34,37.66-17.75,82-81.43,136.69C1961.12,699.22,1867,732,1895.46,773c33.06,47.67,190.74-75.87,254.5-7.86s2.47,175.11,65.82,188.7C2261.24,963.55,2492.76,588.45,2248.48,417.57Z"/></g></g></svg>