<svg xmlns="http://www.w3.org/2000/svg" xmlns:xlink="http://www.w3.org/1999/xlink" viewBox="0 0 600 900"><defs><style>.cls-1{isolation:isolate;}.cls-2{fill:none;}.cls-3{mix-blend-mode:multiply;}.cls-4{opacity:0.2;fill:url(#linear-gradient);}.cls-5{opacity:0.3;fill:url(#linear-gradient-2);}.cls-6{opacity:0.4;fill:url(#linear-gradient-3);}.cls-7{opacity:0.5;fill:url(#linear-gradient-4);}.cls-8{opacity:0.55;fill:url(#linear-gradient-5);}.cls-9{opacity:0.65;fill:url(#linear-gradient-6);}.cls-10{opacity:0.6;fill:url(#linear-gradient-7);}</style><linearGradient id="linear-gradient" x1="-54.5" y1="624.97" x2="752.5" y2="624.97" gradientUnits="userSpaceOnUse"><stop offset="0" stop-color="#ffc347"/><stop offset="1" stop-color="#dece24"/></linearGradient><linearGradient id="linear-gradient-2" x1="18.28" y1="622.75" x2="702.51" y2="622.75" gradientUnits="userSpaceOnUse"><stop offset="0" stop-color="#ffbd2f"/><stop offset="1" stop-color="#d8c718"/></linearGradient><linearGradient id="linear-gradient-3" x1="91.06" y1="621.69" x2="655.37" y2="621.69" gradientUnits="userSpaceOnUse"><stop offset="0" stop-color="#ffb718"/><stop offset="1" stop-color="#d2c00c"/></linearGradient><linearGradient id="linear-gradient-4" x1="163.82" y1="622.25" x2="613.81" y2="622.25" gradientUnits="userSpaceOnUse"><stop offset="0" stop-color="#ffb100"/><stop offset="1" stop-color="#ccb900"/></linearGradient><linearGradient id="linear-gradient-5" x1="248.51" y1="587.69" x2="596.25" y2="587.69" gradientUnits="userSpaceOnUse"><stop offset="0" stop-color="#ed8c00"/><stop offset="1" stop-color="#c99e00"/></linearGradient><linearGradient id="linear-gradient-6" x1="-3823.16" y1="2125.92" x2="-3661.72" y2="2125.92" gradientTransform="translate(1767.4 -3588.06) rotate(-43.4)" gradientUnits="userSpaceOnUse"><stop offset="0" stop-color="#ca4100"/><stop offset="1" stop-color="#c46700"/></linearGradient><linearGradient id="linear-gradient-7" x1="333.15" y1="553.61" x2="580.79" y2="553.61" gradientUnits="userSpaceOnUse"><stop offset="0" stop-color="#dc6600"/><stop offset="1" stop-color="#c78200"/></linearGradient></defs><title>news-bg-hand</title><g class="cls-1"><g id="Layer_1" data-name="Layer 1"><rect class="cls-2" width="600" height="900"/><g class="cls-3"><path class="cls-4" d="M489.73,259.08c-88.14-40.91-120.36,110-126.89,134s-30.22,102.12-173.52,29.7S-73,510.87-52.1,597.82C-27,702.13,53.55,735,111,801.12S286.1,1065.35,481.53,974.36C1039,714.79,577.87,300,489.73,259.08ZM487.45,918c-182.13,105.73-264.78-82.11-314.22-139s-131.35-72.42-153-162.18c-18-74.82,89.1-199.67,214.34-159.33,123.33,39.72,144.92-23.8,150.83-44.31,9.11-31.65,50.31-147.9,123.83-109.79C583.2,341.8,916.77,668.76,487.45,918Z"/><path class="cls-5" d="M509.27,303.38c-73.52-38.11-114.72,78.14-123.83,109.79-5.91,20.51-27.5,84-150.83,44.31C109.37,417.14,2.26,542,20.27,616.81,41.88,706.57,123.79,722.1,173.23,779s132.09,244.73,314.22,139C916.77,668.76,583.2,341.8,509.27,303.38ZM493.38,861.62c-167.58,124.21-216.5-57.1-257.92-104.77S110.75,711,92.64,635.79C77.55,573.11,172.37,484.41,279.9,492.22c103,7.49,123-41.79,128.13-58.91C419.86,394,469.91,312.37,528.8,347.68,588.54,383.61,799.66,634.6,493.38,861.62Z"/><path class="cls-6" d="M528.8,347.68C469.91,312.37,419.86,394,408,433.31c-5.15,17.12-25.12,66.4-128.13,58.91C172.37,484.41,77.55,573.11,92.64,635.79,110.75,711,194,709.19,235.46,756.85s90.34,229,257.92,104.77C799.66,634.6,588.54,383.61,528.8,347.68ZM499.31,805.25c-147.15,149.29-168.22-32.09-201.63-70.53S179.62,715.43,165,654.78C152.85,604.23,235.46,552.72,325.19,527,408,503.2,426.3,467.2,430.63,453.44c14.78-46.94,73.43-94,117.71-61.45C593.88,425.43,691.37,610.38,499.31,805.25Z"/><path class="cls-7" d="M548.34,392c-44.28-32.51-102.93,14.51-117.71,61.45C426.3,467.2,408,503.2,325.19,527,235.46,552.72,152.85,604.23,165,654.78c14.6,60.65,99.25,41.5,132.66,79.94s54.48,219.82,201.63,70.53C691.37,610.38,593.88,425.43,548.34,392ZM506,740.73c-103.88,98.8-111.88-34.24-140.66-67.36s-102.5-7.84-115.56-53.48c-11-38.18,54.42-75.1,119-96.74,62.35-20.89,76.34-50.09,79.51-63.24,9.58-39.71,57.72-80,96-51.63C600,449.75,640,613.28,506,740.73Z"/><path class="cls-8" d="M544.27,408.28c-38.29-28.32-86.43,11.92-96,51.63-3.17,13.15-17.16,42.35-79.51,63.24-64.6,21.64-130,58.56-119,96.74,13.06,45.64,86.77,20.35,115.56,53.48S402.07,839.53,506,740.73C640,613.28,600,449.75,544.27,408.28ZM512.6,676.22c-60.88,48.37-55.54-36.4-79.71-64.2s-86.93,3.61-98.46-27c-9.78-25.81,38.37-48.45,77.88-65.66,41.93-18.26,51.69-40.37,53.58-53,4.84-32.32,42-65.95,74.32-41.81C606,474.06,588.22,616.14,512.6,676.22Z"/><path class="cls-9" d="M419.14,550.11c-8.58-13.44,21.86-22.76,36.73-34.58,21-16.68,27.3-30.63,27.64-42.66.71-24.89,26.29-51.94,52.63-32,76,57.5-2.5,174.49-16.89,170.83-20.07-5.1.79-38.56-18.75-61.05S429.13,565.73,419.14,550.11Z"/><path class="cls-10" d="M540.21,424.58c-32.32-24.14-69.48,9.49-74.32,41.81-1.89,12.58-11.65,34.69-53.58,53-39.51,17.21-87.66,39.85-77.88,65.66,11.53,30.63,74.3-.79,98.46,27s18.83,112.57,79.71,64.2C588.22,616.14,606,474.06,540.21,424.58Zm-21,187.13c-20.07-5.1.79-38.56-18.75-61.05s-71.37,15.07-81.36-.55c-8.58-13.44,21.86-22.76,36.73-34.58,21-16.68,27.3-30.63,27.64-42.66.71-24.89,26.29-51.94,52.63-32C612.09,498.38,533.64,615.37,519.25,611.71Z"/></g></g></g></svg>