<svg id="Layer_1" data-name="Layer 1" xmlns="http://www.w3.org/2000/svg" xmlns:xlink="http://www.w3.org/1999/xlink" viewBox="0 0 1800 1100"><defs><style>.cls-1{fill:none;}.cls-2{opacity:0.2;fill:url(#linear-gradient);}.cls-3{opacity:0.3;fill:url(#linear-gradient-2);}.cls-4{opacity:0.4;fill:url(#linear-gradient-3);}.cls-5{opacity:0.5;fill:url(#linear-gradient-4);}.cls-6{opacity:0.55;fill:url(#linear-gradient-5);}.cls-7{opacity:0.6;fill:url(#linear-gradient-6);}.cls-8{opacity:0.65;fill:url(#linear-gradient-7);}</style><linearGradient id="linear-gradient" x1="-3560.38" y1="4439.32" x2="-2090.7" y2="4439.32" gradientTransform="translate(2041.7 -4389.94) rotate(-23.39)" gradientUnits="userSpaceOnUse"><stop offset="0" stop-color="#ffc347"/><stop offset="1" stop-color="#dece24"/></linearGradient><linearGradient id="linear-gradient-2" x1="-3453.06" y1="4461.73" x2="-2143.65" y2="4461.73" gradientTransform="translate(2041.7 -4389.94) rotate(-23.39)" gradientUnits="userSpaceOnUse"><stop offset="0" stop-color="#ffbd2f"/><stop offset="1" stop-color="#d8c718"/></linearGradient><linearGradient id="linear-gradient-3" x1="-3351.52" y1="4490.8" x2="-2193.4" y2="4490.8" gradientTransform="translate(2041.7 -4389.94) rotate(-23.39)" gradientUnits="userSpaceOnUse"><stop offset="0" stop-color="#ffb718"/><stop offset="1" stop-color="#d2c00c"/></linearGradient><linearGradient id="linear-gradient-4" x1="-3254.39" y1="4529.8" x2="-2236.78" y2="4529.8" gradientTransform="translate(2041.7 -4389.94) rotate(-23.39)" gradientUnits="userSpaceOnUse"><stop offset="0" stop-color="#ffb100"/><stop offset="1" stop-color="#ccb900"/></linearGradient><linearGradient id="linear-gradient-5" x1="-3060.97" y1="4526.13" x2="-2267.5" y2="4526.13" gradientTransform="translate(2041.7 -4389.94) rotate(-23.39)" gradientUnits="userSpaceOnUse"><stop offset="0" stop-color="#ed8c00"/><stop offset="1" stop-color="#c99e00"/></linearGradient><linearGradient id="linear-gradient-6" x1="-2869.27" y1="4523.21" x2="-2298.18" y2="4523.21" gradientTransform="translate(2041.7 -4389.94) rotate(-23.39)" gradientUnits="userSpaceOnUse"><stop offset="0" stop-color="#dc6600"/><stop offset="1" stop-color="#c78200"/></linearGradient><linearGradient id="linear-gradient-7" x1="-2680.05" y1="4503.01" x2="-2328.82" y2="4503.01" gradientTransform="translate(2041.7 -4389.94) rotate(-23.39)" gradientUnits="userSpaceOnUse"><stop offset="0" stop-color="#ca4100"/><stop offset="1" stop-color="#c46700"/></linearGradient></defs><title>news-bg-wall</title><rect class="cls-1" width="1800" height="1100"/><path class="cls-2" d="M1142.18,1629c1332.76-115.63,699-1306.88,549.27-1456.11s-328,135.33-359.13,179.38S1194.53,538.57,955.5,283.86,353.56,268.7,331.62,462C305.3,694,445.48,821.13,513.71,999.06S674.94,1669.57,1142.18,1629ZM465.44,554.73c18.87-166.36,330.79-341.83,556.78-166.14,222.54,173,314,59.23,341.31,21.71,42.19-57.92,213-264.88,334.88-132.25,122.54,133.57,561,1050.29-502.15,1240.16-451,80.56-480.15-365-538.87-518.08S442.79,754.3,465.44,554.73Z"/><path class="cls-3" d="M1196.26,1518.21C2259.42,1328.34,1821,411.62,1698.41,278.05c-121.92-132.63-292.69,74.33-334.88,132.25-27.34,37.52-118.77,151.31-341.31-21.71-226-175.69-537.91-.22-556.78,166.14-22.65,199.57,133.24,292.3,192,445.4S745.21,1598.77,1196.26,1518.21Zm-597-870.79C615.07,508,874.94,397.3,1088.94,493.33c205,92,282.52,6.12,305.8-25.05,53.46-71.59,216.51-201.15,310.62-85.12,95.37,117.92,340.1,788.16-455,1024.23-435,129.17-400.07-277.89-449.27-406.17S580.28,814.64,599.25,647.42Z"/><path class="cls-4" d="M1250.34,1407.39c795.12-236.07,550.39-906.31,455-1024.23-94.11-116-257.16,13.53-310.62,85.12-23.28,31.17-100.8,117-305.8,25.05-214-96-473.87,14.71-489.69,154.09-19,167.22,152.63,225.51,201.82,353.8S815.3,1536.56,1250.34,1407.39ZM733.07,740.11c12.75-112.41,220-156.2,422.59-142.05,186.89,13.05,251.2-46.9,270.29-71.8,65.15-85,220.06-137.41,286.37-38,68.19,102.26,129.79,552.94-407.9,808.3-411.95,195.65-320-190.82-359.67-294.28S717.77,875,733.07,740.11Z"/><path class="cls-5" d="M944.75,1002.29c39.68,103.46-52.28,489.93,359.67,294.28,537.69-255.36,476.09-706,407.9-808.3-66.31-99.42-221.22-47-286.37,38-19.09,24.9-83.4,84.85-270.29,71.8C953.05,583.91,745.82,627.7,733.07,740.11,717.77,875,905.08,898.84,944.75,1002.29ZM932.21,731.85c6-86.23,167.16-113,315.33-109.15,143,3.72,193.36-45.57,209.62-70.08,49.15-74.05,177.51-120.48,234.72-34.06,82.94,126.2,43,490.3-325.84,651.08-285.91,124.62-203.22-153.29-237.41-242.43S924.93,834.88,932.21,731.85Z"/><path class="cls-6" d="M1128.63,927.21c34.19,89.14-48.5,367,237.41,242.43,368.86-160.78,408.78-524.88,325.84-651.08-57.21-86.42-185.57-40-234.72,34.06-16.26,24.51-66.61,73.8-209.62,70.08-148.17-3.85-309.34,22.92-315.33,109.15C924.93,834.88,1094.45,838.06,1128.63,927.21Zm210.79-279.87c99.32-6.11,135.74-44.05,148.95-68.36,34-62.47,135-103.54,183.06-30.14C1769.12,699,1627,976.17,1427.65,1042.7c-160.47,53.57-86.44-115.76-115.13-190.58s-180.42-57.34-181.17-128.53C1130.57,663.54,1245.85,653.1,1339.42,647.34Z"/><path class="cls-7" d="M1312.52,852.12c28.69,74.82-45.34,244.15,115.13,190.58C1627,976.17,1769.12,699,1671.43,548.84c-48.1-73.4-149.08-32.33-183.06,30.14-13.21,24.31-49.63,62.25-148.95,68.36-93.57,5.76-208.85,16.2-208.07,76.25C1132.1,794.78,1283.82,777.29,1312.52,852.12ZM1431.3,672c55.34-18.47,78.63-42.3,88.28-66.64,20-50.34,92.41-86.6,131.41-26.21C1763.43,753.22,1516,934,1489.27,915.77c-37.22-25.36,30.33-78.23,7.13-138.74s-157.13-22.34-165.91-61.71C1322.94,681.46,1392.11,685.07,1431.3,672Z"/><path class="cls-8" d="M1496.4,777c23.2,60.51-44.35,113.38-7.13,138.74C1516,934,1763.43,753.22,1651,579.13c-39-60.39-111.43-24.13-131.41,26.21-9.65,24.34-32.94,48.17-88.28,66.64-39.19,13.09-108.36,9.48-100.81,43.34C1339.27,754.69,1473.19,716.51,1496.4,777Z"/></svg>