<svg id="Layer_1" data-name="Layer 1" xmlns="http://www.w3.org/2000/svg" xmlns:xlink="http://www.w3.org/1999/xlink" viewBox="0 0 900 1100"><defs><style>.cls-1{fill:none;}.cls-2{opacity:0.2;fill:url(#linear-gradient);}.cls-3{opacity:0.3;fill:url(#linear-gradient-2);}.cls-4{opacity:0.4;fill:url(#linear-gradient-3);}.cls-5{opacity:0.5;fill:url(#linear-gradient-4);}.cls-6{opacity:0.55;fill:url(#linear-gradient-5);}.cls-7{opacity:0.6;fill:url(#linear-gradient-6);}.cls-8{opacity:0.65;fill:url(#linear-gradient-7);}</style><linearGradient id="linear-gradient" x1="-3851.43" y1="2870.38" x2="-2939.35" y2="2870.38" gradientTransform="translate(1992.75 -3538.13) rotate(-31.94)" gradientUnits="userSpaceOnUse"><stop offset="0" stop-color="#ffc347"/><stop offset="1" stop-color="#dece24"/></linearGradient><linearGradient id="linear-gradient-2" x1="-3784.83" y1="2884.29" x2="-2972.21" y2="2884.29" gradientTransform="translate(1992.75 -3538.13) rotate(-31.94)" gradientUnits="userSpaceOnUse"><stop offset="0" stop-color="#ffbd2f"/><stop offset="1" stop-color="#d8c718"/></linearGradient><linearGradient id="linear-gradient-3" x1="-3721.81" y1="2902.33" x2="-3003.08" y2="2902.33" gradientTransform="translate(1992.75 -3538.13) rotate(-31.94)" gradientUnits="userSpaceOnUse"><stop offset="0" stop-color="#ffb718"/><stop offset="1" stop-color="#d2c00c"/></linearGradient><linearGradient id="linear-gradient-4" x1="-3661.53" y1="2926.53" x2="-3030" y2="2926.53" gradientTransform="translate(1992.75 -3538.13) rotate(-31.94)" gradientUnits="userSpaceOnUse"><stop offset="0" stop-color="#ffb100"/><stop offset="1" stop-color="#ccb900"/></linearGradient><linearGradient id="linear-gradient-5" x1="-3541.5" y1="2924.26" x2="-3049.07" y2="2924.26" gradientTransform="translate(1992.75 -3538.13) rotate(-31.94)" gradientUnits="userSpaceOnUse"><stop offset="0" stop-color="#ed8c00"/><stop offset="1" stop-color="#c99e00"/></linearGradient><linearGradient id="linear-gradient-6" x1="-3422.53" y1="2922.45" x2="-3068.11" y2="2922.45" gradientTransform="translate(1992.75 -3538.13) rotate(-31.94)" gradientUnits="userSpaceOnUse"><stop offset="0" stop-color="#dc6600"/><stop offset="1" stop-color="#c78200"/></linearGradient><linearGradient id="linear-gradient-7" x1="-3305.1" y1="2909.91" x2="-3087.12" y2="2909.91" gradientTransform="translate(1992.75 -3538.13) rotate(-31.94)" gradientUnits="userSpaceOnUse"><stop offset="0" stop-color="#ca4100"/><stop offset="1" stop-color="#c46700"/></linearGradient></defs><title>news-bg-lap</title><rect class="cls-1" width="900" height="1100"/><path class="cls-2" d="M866.15,260.85c-105.65-77.78-188.8,113.29-203.87,143.2s-67.39,127-237.57-7.27S53.89,443,58.25,563.65c5.23,144.77,103,209.88,161.27,312.79s160.76,396.64,443.78,328.69C1470.57,1011.29,971.79,338.63,866.15,260.85ZM686.27,1132.13c-269.39,91-328.33-179.72-378.48-268.27S153.42,732.77,148.92,608.2c-3.75-103.84,171.5-240.28,326.39-153.29,152.53,85.66,198.15,7.4,211.47-18.15,20.55-39.43,106.28-182.19,193.33-112C967.63,395.4,1321.24,917.58,686.27,1132.13Z"/><path class="cls-3" d="M686.78,436.76c-13.32,25.55-58.94,103.81-211.47,18.15-154.89-87-330.14,49.45-326.39,153.29,4.5,124.57,108.72,167.11,158.87,255.66s109.09,359.29,378.48,268.27c635-214.55,281.36-736.73,193.84-807.41C793.06,254.57,707.33,397.33,686.78,436.76Zm207.29-48.17c69.4,63.58,281.38,452.35-184.83,670.54C454.16,1178.51,438.09,925.46,396.07,851.27s-152.7-94.15-156.48-198.52c-3.14-87,146.14-178.92,286.33-139.72,134.29,37.56,174-22.29,185.36-43.56C737.49,420.6,825.61,326.06,894.07,388.59Z"/><path class="cls-4" d="M711.28,469.47c-11.41,21.27-51.07,81.12-185.36,43.56-140.19-39.2-289.47,52.72-286.33,139.72,3.78,104.37,114.46,124.33,156.48,198.52s58.09,327.24,313.17,207.86c466.21-218.19,254.23-607,184.83-670.54C825.61,326.06,737.49,420.6,711.28,469.47Zm196.75-17c51.27,56.47,130.63,327.38-175.82,533.67-234.78,158.05-214-87.61-247.86-147.44s-151-57.21-154.09-141.39c-2.53-70.16,120.61-116.14,246.26-126.14,115.9-9.22,149.84-51.94,159.26-69C767.93,444,858.17,397.55,908,452.46Z"/><path class="cls-5" d="M735.78,502.18c-9.42,17-43.36,59.76-159.26,69-125.65,10-248.79,56-246.26,126.14,3.05,84.18,120.2,81.55,154.09,141.39s13.08,305.49,247.86,147.44C1038.66,779.84,959.3,508.93,908,452.46,858.17,397.55,767.93,444,735.78,502.18Zm162.49-29.25c62.54,69.81,71.61,296.94-139.94,429.62-164,102.84-138.85-75.34-168.05-126.9S456.75,737.77,451.72,673.87c-4.28-53.47,92.17-84.76,183.46-96.06,88.11-10.9,114.46-45.79,122.19-62.33C780.7,465.5,855.2,425.17,898.27,472.93Z"/><path class="cls-6" d="M635.18,577.81c-91.29,11.3-187.74,42.59-183.46,96.06,5,63.9,109.36,50.23,138.56,101.78s4.07,229.74,168.05,126.9C969.88,769.87,960.81,542.74,898.27,472.93c-43.07-47.76-117.57-7.43-140.9,42.55C749.64,532,723.29,566.91,635.18,577.81Zm143.77-49c15.09-41.47,73.28-76,109.57-35.38,73.79,83.15,12.1,266.36-104.08,325.57-93.54,47.66-63.72-63.08-88.23-106.35s-116-18.56-123-62.18c-6-36.78,63.77-53.82,120.67-66C754.23,571.55,773.08,544.91,779,528.78Z"/><path class="cls-7" d="M573.17,650.44c7,43.62,98.53,18.9,123,62.18s-5.31,154,88.23,106.35C900.62,759.76,962.31,576.55,888.52,493.4,852.23,452.79,794,487.31,779,528.78c-5.87,16.13-24.72,42.77-85.11,55.68C636.94,596.62,567.16,613.66,573.17,650.44ZM752.5,591.11c32.25-16.44,44.35-33.21,48-49,7.61-32.74,48.72-61.67,78.23-28.21,85.05,96.48-50.15,230.22-68.22,221.51-25.18-12.13,11.41-50.8-8.42-85.8s-98.49.77-107.5-22.58C686.87,606.92,729.65,602.76,752.5,591.11Z"/><path class="cls-8" d="M694.63,627c9,23.35,87.68-12.42,107.5,22.58s-16.76,73.67,8.42,85.8c18.07,8.71,153.27-125,68.22-221.51-29.51-33.46-70.62-4.53-78.23,28.21-3.69,15.82-15.79,32.59-48,49C729.65,602.76,686.87,606.92,694.63,627Z"/></svg>